PathFileType	4	(X/Y/Z)	SB25.trc
DataRate	CameraRate	NumFrames	NumMarkers	Units	OrigDataRate	OrigDataStartFrame	OrigNumFrames
60.0	60.0	9	25	m	60.0	67	531
Frame#	Time	R.ASIS			L.ASIS			V.Sacral			R.Knee.Lat			R.Knee.Med			L.Knee.Lat			L.Knee.Med			R.Ankle.Lat			R.Ankle.Med			L.Ankle.Lat			L.Ankle.Med			R.Shank.Front			L.Shank.Front			R.Heel			L.Heel			R.Toe.Tip			L.Toe.Tip			R.Midfoot.Lat			L.Midfoot.Lat			R.Toe.Med			L.Toe.Med			Sternum			Top.Head			R.Acromium			L.Acromium		
		X1	Y1	Z1	X2	Y2	Z2	X3	Y3	Z3	X4	Y4	Z4	X5	Y5	Z5	X6	Y6	Z6	X7	Y7	Z7	X8	Y8	Z8	X9	Y9	Z9	X10	Y10	Z10	X11	Y11	Z11	X12	Y12	Z12	X13	Y13	Z13	X14	Y14	Z14	X15	Y15	Z15	X16	Y16	Z16	X17	Y17	Z17	X18	Y18	Z18	X19	Y19	Z19	X20	Y20	Z20	X21	Y21	Z21	X22	Y22	Z22	X23	Y23	Z23	X24	Y24	Z24	X25	Y25	Z25

67	1.100000	4.837329	0.857672	0.110445	4.804799	0.880645	-0.205126	4.644507	0.848100	-0.029303	4.518005	0.348429	0.066012	4.521448	0.356087	-0.021589	5.104831	0.555190	-0.187182	5.102118	0.549446	-0.102189	4.167498	0.130182	0.067673	4.163641	0.132097	0.006144	5.088666	0.134011	-0.149535	5.090855	0.137840	-0.087068	4.524263	0.289081	0.018562	5.155096	0.522644	-0.140774	4.078960	0.187616	-0.007729	5.056336	0.028717	-0.109386	4.048926	-0.099551	-0.025979	5.343542	0.057433	-0.125961	4.034116	0.000000	0.021888	5.241238	0.040203	-0.167260	4.078127	0.001914	-0.059976	5.246554	0.047861	-0.075801	5.074585	1.221417	-0.069131	5.253123	1.516242	-0.028976	5.024836	1.246305	0.123590	4.964358	1.271193	-0.237764
68	1.116667	4.932543	0.871073	0.111803	4.893130	0.890218	-0.204290	4.736383	0.857672	-0.026068	4.630322	0.352258	0.066536	4.636372	0.359916	-0.020334	5.175120	0.534131	-0.187181	5.175014	0.532216	-0.101457	4.254995	0.179958	0.051406	4.253745	0.183787	-0.009393	5.174390	0.116781	-0.149429	5.174910	0.120610	-0.086023	4.631366	0.294825	0.017626	5.227993	0.507328	-0.140042	4.191173	0.260365	-0.026915	5.142268	0.005743	-0.105004	4.111499	-0.011487	-0.078747	5.432394	0.040203	-0.132007	4.111811	0.082321	-0.019616	5.326023	0.022973	-0.168823	4.161974	0.082321	-0.098352	5.333008	0.030631	-0.078302	5.167088	1.227160	-0.088213	5.357306	1.508584	-0.054628	5.122553	1.263535	0.105968	5.049248	1.269278	-0.254761
69	1.133333	5.022542	0.882560	0.111701	4.985736	0.895961	-0.203662	4.828990	0.865330	-0.025440	4.756613	0.350344	0.072379	4.766209	0.354173	-0.012093	5.239674	0.505414	-0.181756	5.240506	0.507328	-0.094364	4.359178	0.243135	0.025754	4.363872	0.248878	-0.036192	5.229453	0.088065	-0.145256	5.229034	0.091893	-0.083519	4.750774	0.292910	0.022947	5.293484	0.476697	-0.132949	4.317465	0.335028	-0.056216	5.195663	-0.021059	-0.099892	4.210469	0.080407	-0.141004	5.484433	0.003829	-0.137116	4.215264	0.170386	-0.077806	5.377332	-0.009572	-0.171325	4.277942	0.166557	-0.146008	5.386924	-0.001914	-0.080074	5.257922	1.230989	-0.106357	5.458152	1.499012	-0.078403	5.219332	1.276936	0.086677	5.129862	1.267364	-0.271550
70	1.150000	5.115149	0.890218	0.112329	5.075736	0.899790	-0.203765	4.918989	0.869159	-0.025542	4.889786	0.344600	0.078744	4.903658	0.348429	-0.005937	5.299013	0.472868	-0.177792	5.303182	0.476697	-0.092277	4.484009	0.300568	0.001667	4.492979	0.306311	-0.060488	5.267935	0.059348	-0.147133	5.268455	0.061262	-0.083726	4.877795	0.292910	0.026183	5.353553	0.444152	-0.131592	4.455124	0.398205	-0.080929	5.226532	-0.044032	-0.099683	4.333319	0.156985	-0.188138	5.514155	-0.036374	-0.142851	4.338324	0.245049	-0.120665	5.407992	-0.045947	-0.175391	4.407363	0.237391	-0.181462	5.421860	-0.038289	-0.084349	5.347087	1.230989	-0.123562	5.553991	1.491354	-0.099363	5.312773	1.286508	0.069263	5.212353	1.261620	-0.285001
71	1.166667	5.210154	0.890218	0.109411	5.164796	0.897876	-0.205535	5.012534	0.867244	-0.023246	5.030365	0.335028	0.078747	5.041629	0.340772	-0.006664	5.355327	0.442237	-0.183109	5.360436	0.446066	-0.095926	4.623753	0.348429	-0.015433	4.635331	0.352258	-0.076858	5.290565	0.032546	-0.157665	5.291085	0.034460	-0.094259	5.011490	0.289081	0.025664	5.407261	0.407777	-0.137639	4.604150	0.444152	-0.101053	5.238212	-0.063177	-0.106253	4.465242	0.210589	-0.207428	5.520621	-0.082321	-0.150881	4.477859	0.302483	-0.142041	5.415397	-0.089979	-0.181752	4.547837	0.287167	-0.201169	5.430933	-0.080407	-0.091648	5.432707	1.229075	-0.143166	5.640550	1.487525	-0.117298	5.407883	1.290337	0.050911	5.290568	1.250134	-0.298243
72	1.183333	5.306828	0.884474	0.105555	5.253857	0.892132	-0.207306	5.105140	0.861501	-0.022618	5.177617	0.325456	0.074996	5.187944	0.333114	-0.012083	5.407158	0.409692	-0.192494	5.413935	0.411606	-0.106249	4.777264	0.388633	-0.031490	4.790509	0.388633	-0.093853	5.297552	0.007658	-0.172578	5.298072	0.009572	-0.109172	5.153528	0.283338	0.020453	5.455546	0.369488	-0.149423	4.763396	0.482441	-0.122532	5.229035	-0.076578	-0.118663	4.613225	0.250793	-0.213787	5.504770	-0.132097	-0.159537	4.629909	0.342686	-0.152883	5.401214	-0.135926	-0.191347	4.699887	0.321627	-0.212012	5.417689	-0.124439	-0.099574	5.517597	1.225246	-0.160163	5.722102	1.487525	-0.132418	5.499655	1.290337	0.034436	5.370660	1.236733	-0.308149
73	1.200000	5.400894	0.874902	0.100968	5.341979	0.884474	-0.210746	5.197747	0.851929	-0.021990	5.331544	0.319713	0.067491	5.338534	0.329285	-0.017711	5.453774	0.377146	-0.203339	5.462220	0.379060	-0.118032	4.935258	0.413520	-0.043479	4.949442	0.413520	-0.104174	5.302350	-0.009572	-0.179669	5.304538	-0.009572	-0.117201	5.303180	0.283338	0.013157	5.498825	0.331199	-0.158390	4.914507	0.505414	-0.135043	5.226219	-0.088065	-0.123669	4.765901	0.268023	-0.211802	5.497678	-0.166557	-0.164335	4.782376	0.361830	-0.155174	5.390785	-0.166557	-0.194267	4.848808	0.340772	-0.216701	5.407990	-0.155070	-0.105102	5.604572	1.219503	-0.169546	5.802194	1.487525	-0.142323	5.586630	1.286508	0.025052	5.456906	1.223331	-0.314925
74	1.216667	5.495691	0.863415	0.093775	5.429163	0.871073	-0.215854	5.290145	0.838528	-0.025638	5.494753	0.319713	0.056961	5.494859	0.329285	-0.028762	5.492778	0.342686	-0.212098	5.508106	0.344600	-0.126270	5.092731	0.425007	-0.048586	5.106915	0.428836	-0.109280	5.304644	-0.024888	-0.167780	5.311108	-0.024888	-0.105521	5.460966	0.287167	-0.003108	5.536160	0.294825	-0.166211	5.053417	0.514986	-0.134102	5.235188	-0.107209	-0.115534	4.922330	0.264194	-0.203142	5.507898	-0.178044	-0.165690	4.934530	0.359916	-0.146306	5.400275	-0.176129	-0.193016	4.995540	0.346515	-0.213569	5.420088	-0.170386	-0.103120	5.694571	1.209930	-0.169649	5.881765	1.491354	-0.145346	5.668808	1.280765	0.022759	5.555248	1.208016	-0.319720
75	1.233333	5.589549	0.848100	0.084912	5.517077	0.855758	-0.223569	5.382543	0.821298	-0.029286	5.660361	0.329285	0.042887	5.656191	0.336943	-0.042629	5.530321	0.310140	-0.215643	5.550655	0.312055	-0.132630	5.250412	0.421178	-0.049416	5.264597	0.432665	-0.110111	5.308293	-0.036374	-0.145672	5.320702	-0.034460	-0.084559	5.625426	0.298654	-0.023128	5.570158	0.258450	-0.172154	5.186799	0.509243	-0.123461	5.249579	-0.124439	-0.101664	5.087728	0.239306	-0.186348	5.526878	-0.176129	-0.163187	5.093254	0.336943	-0.125758	5.418525	-0.172300	-0.187905	5.146025	0.335028	-0.203763	5.438338	-0.172300	-0.098010	5.786656	1.198444	-0.162138	5.958207	1.495183	-0.142215	5.746189	1.269278	0.027558	5.661412	1.192700	-0.322325
